# xmcd CD database file
#
# Track frame offsets:
#	150
#	13825
#	36987
#	48345
#	60967
#	72925
#	81140
#	92880
#	106317
#	119727
#	148685
#	158365
#
# Disc length: 2270 seconds
#
# Revision: 0
# Processed by: cddbd v1.5.1PL0 Copyright (c) Steve Scherf et al.
# Submitted via: CDex 1.51
#
DISCID=9d08dc0c
DTITLE=Various Artist - Oldies The Best Vol.10
DYEAR=1900
DGENRE=Rock
TTITLE0=John Lennon - Stand By Me
TTITLE1=An Marguerite - One Boy
TTITLE2=Kas Qizz - Rhythm On The Rain
TTITLE3=Bobby Hebb - Sunny
TTITLE4=The Drifters - Save The Last Dance For Me
TTITLE5=Cliff Richard - Young One's
TTITLE6=Pat Boone - Speedy Gonzales
TTITLE7=Joe Stafford - Jambalaya
TTITLE8=Torini Ropes - If I Had A Hammer
TTITLE9=Ray Charles - What'd I Say
TTITLE10=Paul Anka - My Home Town
TTITLE11=Neil Sedaka - Calender Girl
EXTD=
EXTT0=
EXTT1=
EXTT2=
EXTT3=
EXTT4=
EXTT5=
EXTT6=
EXTT7=
EXTT8=
EXTT9=
EXTT10=
EXTT11=
PLAYORDER=
